<?xml version="1.0" standalone="no"?>
<!DOCTYPE svg PUBLIC "-//W3C//DTD SVG 20010904//EN"
 "http://www.w3.org/TR/2001/REC-SVG-20010904/DTD/svg10.dtd">
<svg version="1.0" xmlns="http://www.w3.org/2000/svg"
 width="1000.000000pt" height="1000.000000pt" viewBox="0 0 1000.000000 1000.000000"
 preserveAspectRatio="xMidYMid meet">
<metadata>
Created by potrace 1.11, written by Peter Selinger 2001-2013
</metadata>
<g transform="translate(0.000000,1000.000000) scale(0.100000,-0.100000)"
fill="#000000" stroke="none">
<path d="M4728 9645 c-2 -2 -44 -7 -93 -10 -49 -3 -102 -8 -119 -10 -17 -3
-57 -7 -90 -10 -32 -3 -61 -7 -65 -9 -3 -2 -31 -7 -61 -10 -30 -4 -62 -8 -70
-10 -8 -1 -37 -7 -65 -11 -27 -5 -52 -10 -55 -10 -3 -1 -23 -5 -45 -10 -22 -4
-49 -10 -60 -12 -11 -2 -31 -6 -44 -9 -14 -3 -28 -7 -31 -9 -4 -2 -20 -6 -36
-9 -16 -3 -92 -24 -169 -46 -77 -22 -147 -42 -155 -45 -8 -2 -16 -4 -17 -5 -2
-2 -7 -4 -13 -5 -5 -1 -12 -4 -15 -5 -3 -1 -8 -3 -12 -5 -5 -1 -15 -4 -23 -7
-8 -3 -37 -13 -65 -23 -27 -9 -64 -23 -82 -31 -17 -8 -34 -14 -37 -14 -4 0
-23 -7 -44 -17 -20 -9 -39 -17 -42 -18 -89 -31 -469 -216 -498 -242 -7 -7 -20
-13 -28 -13 -8 0 -14 -3 -14 -8 0 -4 -13 -13 -29 -20 -29 -13 -73 -40 -199
-123 -41 -27 -78 -49 -82 -49 -5 0 -10 -4 -12 -8 -1 -5 -25 -23 -53 -42 -27
-19 -56 -40 -63 -47 -7 -7 -26 -20 -42 -30 -17 -9 -30 -21 -30 -25 0 -4 -4 -8
-10 -8 -5 0 -20 -10 -34 -22 -13 -13 -39 -34 -56 -48 -18 -14 -38 -29 -44 -35
-6 -5 -43 -37 -81 -70 -84 -72 -216 -198 -294 -279 -107 -113 -118 -125 -162
-178 -24 -29 -48 -58 -54 -64 -5 -6 -23 -28 -40 -49 -16 -21 -35 -43 -41 -49
-53 -55 -364 -509 -364 -532 0 -2 -11 -22 -24 -43 -34 -53 -175 -331 -210
-411 -15 -36 -34 -78 -41 -95 -28 -62 -113 -283 -119 -310 -1 -5 -17 -57 -35
-115 -19 -58 -34 -107 -34 -110 0 -3 -7 -25 -14 -50 -16 -53 -71 -290 -79
-339 -3 -18 -8 -43 -10 -55 -2 -11 -9 -50 -14 -86 -6 -36 -13 -76 -15 -89 -2
-14 -7 -50 -10 -80 -3 -31 -8 -69 -10 -86 -26 -211 -27 -827 0 -965 2 -12 7
-50 9 -84 3 -33 10 -84 15 -113 6 -29 13 -74 17 -100 3 -26 10 -68 16 -93 5
-25 12 -58 15 -75 17 -111 152 -575 201 -695 5 -14 20 -48 31 -77 12 -28 26
-64 33 -80 6 -15 12 -30 13 -33 14 -40 158 -335 209 -428 30 -53 67 -115 129
-217 23 -37 77 -120 85 -130 8 -10 85 -119 112 -159 18 -28 138 -179 165 -210
11 -13 43 -50 70 -82 65 -77 373 -385 449 -449 32 -28 64 -55 70 -60 6 -6 40
-33 75 -60 35 -28 72 -58 82 -68 11 -9 24 -17 29 -17 6 0 10 -4 10 -10 0 -5 6
-10 14 -10 8 0 16 -4 18 -8 2 -4 35 -30 73 -57 39 -27 72 -53 73 -57 2 -5 8
-8 13 -8 5 0 31 -15 57 -32 59 -41 78 -52 122 -78 19 -11 49 -29 65 -39 97
-60 436 -235 456 -236 3 0 33 -12 65 -27 91 -41 257 -106 286 -112 14 -2 34
-9 44 -15 41 -22 459 -138 559 -155 17 -2 55 -9 85 -15 30 -6 69 -13 85 -15
17 -3 45 -8 63 -11 70 -11 87 -14 226 -30 127 -15 250 -20 486 -20 287 1 429
9 603 35 37 6 86 12 110 15 23 3 87 14 142 25 55 10 111 21 125 23 14 3 45 10
70 17 25 7 52 13 60 15 8 2 42 10 75 19 33 9 71 19 85 22 39 8 380 124 425
144 23 10 53 22 68 25 15 4 27 12 27 18 0 6 3 7 6 4 4 -3 16 -1 28 5 11 7 26
13 32 14 16 3 368 176 374 184 3 3 23 14 45 24 22 11 42 22 45 25 3 3 16 12
29 19 13 8 40 23 60 34 20 11 47 29 60 39 13 11 29 19 37 19 7 0 14 3 16 8 5
10 97 72 108 72 6 0 10 4 10 8 0 4 13 16 30 25 16 10 35 23 42 30 7 7 31 24
54 40 22 15 50 36 62 48 12 11 22 17 22 14 0 -3 8 3 18 12 11 10 39 34 63 53
24 19 50 43 58 53 9 9 19 17 23 17 10 0 104 86 254 230 63 61 207 216 265 285
52 61 73 86 84 99 6 6 23 29 39 51 17 22 33 42 36 45 3 3 17 21 30 40 13 19
27 37 30 40 11 11 194 279 201 297 2 4 20 34 39 66 66 110 89 153 168 312 90
181 110 224 154 333 34 85 87 229 94 252 2 8 24 82 49 164 41 134 97 356 110
439 3 18 10 55 15 82 5 28 12 68 15 90 3 23 7 50 9 60 2 11 7 47 11 80 3 33 8
74 10 90 26 208 26 796 0 975 -2 14 -6 45 -9 70 -9 76 -16 125 -21 150 -3 13
-7 42 -10 65 -7 52 -43 229 -57 280 -5 22 -12 49 -14 60 -2 11 -20 76 -39 145
-20 69 -38 132 -40 140 -13 53 -101 289 -149 405 -38 89 -191 402 -225 460
-10 17 -30 53 -45 80 -16 28 -37 62 -47 77 -11 14 -19 29 -19 32 0 4 -5 12
-10 19 -10 12 -126 184 -145 216 -5 9 -12 18 -15 21 -3 3 -23 30 -45 60 -22
30 -44 60 -50 67 -5 6 -21 26 -35 44 -14 18 -32 40 -41 49 -8 9 -22 26 -30 37
-21 31 -115 137 -182 207 -32 34 -73 77 -91 96 -18 19 -79 78 -136 130 -56 52
-115 107 -130 121 -15 14 -43 36 -61 50 -19 13 -38 29 -44 35 -5 7 -68 55
-140 108 -71 53 -135 100 -141 105 -30 25 -266 174 -309 196 -16 9 -48 27 -70
40 -65 39 -463 235 -479 235 -2 0 -21 8 -42 17 -22 9 -42 18 -46 19 -5 1 -10
3 -13 4 -3 1 -8 3 -12 5 -5 1 -21 7 -38 14 -71 31 -370 124 -494 156 -126 31
-350 78 -431 89 -19 3 -53 8 -75 11 -22 3 -53 7 -70 10 -16 2 -66 7 -110 10
-44 4 -91 9 -105 12 -29 6 -626 14 -632 8z"/>
</g>
</svg>
